<svg xmlns="http://www.w3.org/2000/svg" viewBox="0 0 1580 580">
  <!-- L azul (parte vertical) -->
  <rect x="0" y="0" width="290" height="580" fill="#1E88E5"/>
  
  <!-- L azul (parte horizontal inferior) -->
  <rect x="108" y="378" width="290" height="202" fill="#1E88E5"/>
  
  <!-- Lazo amarillo - curva izquierda superior -->
  <path d="M 108 68 Q 180 68 230 120 Q 280 180 270 260 Q 260 320 210 360 L 210 360 Q 160 400 108 400" 
        fill="none" stroke="#FFC107" stroke-width="85" stroke-linecap="round"/>
  
  <!-- Lazo amarillo - curva derecha superior -->
  <path d="M 398 360 Q 348 400 290 400 L 290 360 Q 340 360 380 320 Q 440 260 450 180 Q 460 120 510 80 Q 550 50 600 68" 
        fill="none" stroke="#FFC107" stroke-width="85" stroke-linecap="round"/>
  
  <!-- Lazo amarillo - centro del nudo -->
  <ellipse cx="355" cy="300" rx="60" ry="50" fill="#FFC107"/>
  <ellipse cx="395" cy="320" rx="50" ry="45" fill="#FFC107"/>
  
  <!-- Lazo amarillo - lazos inferiores -->
  <ellipse cx="280" cy="460" rx="70" ry="65" fill="#9E9D24"/>
  <ellipse cx="420" cy="460" rx="70" ry="65" fill="#9E9D24"/>
  
  <!-- M azul -->
  <path d="M 718 56 L 718 456 L 900 456 L 900 180 L 1020 456 L 1155 456 L 1280 180 L 1280 456 L 1280 456 L 1280 56 L 1100 56 L 1000 350 L 900 56 Z" fill="#1E88E5"/>
  
  <!-- A azul -->
  <path d="M 1310 56 L 1188 456 L 1310 456 L 1340 370 L 1480 370 L 1510 456 L 1580 456 L 1458 56 Z M 1410 140 L 1450 300 L 1370 300 Z" fill="#1E88E5"/>
</svg>
